<svg xmlns="http://www.w3.org/2000/svg" xmlns:xlink="http://www.w3.org/1999/xlink" viewBox="0 0 486.01 128.96"><defs><style>.cls-1{mask:url(#mask);}.cls-10,.cls-11,.cls-13,.cls-14,.cls-16,.cls-17,.cls-18,.cls-2,.cls-27,.cls-33,.cls-34,.cls-4,.cls-6,.cls-7,.cls-9{mix-blend-mode:multiply;}.cls-2{fill:url(#radial-gradient);}.cls-3{mask:url(#mask-2);}.cls-4{fill:url(#radial-gradient-2);}.cls-5{mask:url(#mask-3);}.cls-6{fill:url(#radial-gradient-3);}.cls-7{fill:url(#radial-gradient-4);}.cls-8{mask:url(#mask-5);}.cls-9{fill:url(#radial-gradient-5);}.cls-10{fill:url(#radial-gradient-6);}.cls-11{fill:url(#radial-gradient-7);}.cls-12{mask:url(#mask-8);}.cls-13{fill:url(#radial-gradient-8);}.cls-14{fill:url(#radial-gradient-9);}.cls-15{mask:url(#mask-10);}.cls-16{fill:url(#radial-gradient-10);}.cls-17{fill:url(#radial-gradient-11);}.cls-18{fill:url(#radial-gradient-12);}.cls-19{isolation:isolate;}.cls-20{fill:url(#New_Gradient_Swatch_4);}.cls-21{fill:url(#New_Gradient_Swatch_3);}.cls-22{fill:url(#New_Gradient_Swatch_3-2);}.cls-23{fill:url(#New_Gradient_Swatch_2);}.cls-24{mask:url(#mask-13);}.cls-25{fill:url(#radial-gradient-13);}.cls-26{fill:url(#New_Gradient_Swatch_1);}.cls-27{fill:url(#linear-gradient);}.cls-28{fill:url(#radial-gradient-14);}.cls-29{fill:url(#radial-gradient-15);}.cls-30{fill:url(#radial-gradient-16);}.cls-31{fill:url(#radial-gradient-17);}.cls-32{fill:url(#radial-gradient-18);}.cls-33{fill:url(#linear-gradient-2);}.cls-34{fill:url(#linear-gradient-3);}.cls-35{mask:url(#mask-15);}.cls-36{fill:url(#radial-gradient-19);}.cls-37{mask:url(#mask-17);}.cls-38{fill:url(#radial-gradient-20);}.cls-39{mask:url(#mask-19);}.cls-40{fill:url(#radial-gradient-21);}.cls-41{mask:url(#mask-21);}.cls-42{fill:url(#radial-gradient-22);}.cls-43{mask:url(#mask-23);}.cls-44{fill:url(#radial-gradient-23);}.cls-45{fill:url(#linear-gradient-4);}.cls-46{fill:url(#linear-gradient-5);}.cls-47{fill:url(#linear-gradient-6);}.cls-48{fill:url(#linear-gradient-7);}.cls-49{fill:url(#linear-gradient-8);}.cls-50{fill:url(#linear-gradient-9);}.cls-51{fill:url(#linear-gradient-10);}.cls-52{fill:url(#linear-gradient-11);}.cls-53{fill:url(#linear-gradient-12);}.cls-54{fill:url(#linear-gradient-13);}.cls-55{fill:url(#linear-gradient-14);}.cls-56{fill:url(#linear-gradient-15);}.cls-57{fill:url(#linear-gradient-16);}.cls-58{fill:url(#linear-gradient-17);}.cls-59{fill:url(#linear-gradient-18);}.cls-60{fill:url(#linear-gradient-19);}.cls-61{fill:url(#linear-gradient-20);}.cls-62{fill:url(#linear-gradient-21);}.cls-63{fill:url(#linear-gradient-22);}.cls-64{fill:url(#linear-gradient-23);}.cls-65{filter:url(#luminosity-noclip-10);}.cls-66{filter:url(#luminosity-noclip-8);}.cls-67{filter:url(#luminosity-noclip-5);}.cls-68{filter:url(#luminosity-noclip-3);}.cls-69{filter:url(#luminosity-noclip-2);}.cls-70{filter:url(#luminosity-noclip);}</style><filter id="luminosity-noclip" x="38.38" y="-8431.98" width="23.39" height="32766" filterUnits="userSpaceOnUse" color-interpolation-filters="sRGB"><feFlood flood-color="#fff" result="bg"/><feBlend in="SourceGraphic" in2="bg"/></filter><mask id="mask" x="38.38" y="-8431.98" width="23.39" height="32766" maskUnits="userSpaceOnUse"><g class="cls-70"/></mask><radialGradient id="radial-gradient" cx="36.38" cy="73.55" r="27.96" gradientUnits="userSpaceOnUse"><stop offset="0" stop-color="#ccc"/><stop offset="1"/></radialGradient><filter id="luminosity-noclip-2" x="27.39" y="-8431.98" width="49.47" height="32766" filterUnits="userSpaceOnUse" color-interpolation-filters="sRGB"><feFlood flood-color="#fff" result="bg"/><feBlend in="SourceGraphic" in2="bg"/></filter><mask id="mask-2" x="27.39" y="-8431.98" width="49.47" height="32766" maskUnits="userSpaceOnUse"><g class="cls-69"/></mask><radialGradient id="radial-gradient-2" cx="77.3" cy="84.21" r="26.55" gradientUnits="userSpaceOnUse"><stop offset="0" stop-color="#fff"/><stop offset="0.13" stop-color="#fbfbfb"/><stop offset="0.26" stop-color="#f0f0f0"/><stop offset="0.38" stop-color="#dcdcdc"/><stop offset="0.51" stop-color="#c1c1c1"/><stop offset="0.63" stop-color="#9e9e9e"/><stop offset="0.75" stop-color="#737373"/><stop offset="0.87" stop-color="#404040"/><stop offset="0.99" stop-color="#060606"/><stop offset="1"/></radialGradient><filter id="luminosity-noclip-3" x="3.85" y="-8431.98" width="43.76" height="32766" filterUnits="userSpaceOnUse" color-interpolation-filters="sRGB"><feFlood flood-color="#fff" result="bg"/><feBlend in="SourceGraphic" in2="bg"/></filter><mask id="mask-3" x="3.85" y="-8431.98" width="43.76" height="32766" maskUnits="userSpaceOnUse"><g class="cls-68"/></mask><radialGradient id="radial-gradient-3" cx="11.7" cy="121.52" r="26.5" xlink:href="#radial-gradient"/><radialGradient id="radial-gradient-4" cx="11.7" cy="121.52" r="26.5" gradientUnits="userSpaceOnUse"><stop offset="0" stop-color="#fff"/><stop offset="0.15" stop-color="#fcfcfc"/><stop offset="0.28" stop-color="#f1f1f1"/><stop offset="0.4" stop-color="#e0e0e0"/><stop offset="0.52" stop-color="#c7c7c7"/><stop offset="0.63" stop-color="#a8a8a8"/><stop offset="0.74" stop-color="#818181"/><stop offset="0.84" stop-color="#535353"/><stop offset="0.95" stop-color="#1f1f1f"/><stop offset="1"/></radialGradient><filter id="luminosity-noclip-5" x="41.01" y="-8431.98" width="12.04" height="32766" filterUnits="userSpaceOnUse" color-interpolation-filters="sRGB"><feFlood flood-color="#fff" result="bg"/><feBlend in="SourceGraphic" in2="bg"/></filter><mask id="mask-5" x="41.01" y="-8431.98" width="12.04" height="32766" maskUnits="userSpaceOnUse"><g class="cls-67"/></mask><radialGradient id="radial-gradient-5" cx="35.2" cy="79.59" r="17.41" xlink:href="#radial-gradient"/><radialGradient id="radial-gradient-6" cx="35.2" cy="79.59" r="17.41" gradientUnits="userSpaceOnUse"><stop offset="0" stop-color="#fff"/><stop offset="0.14" stop-color="#fbfbfb"/><stop offset="0.27" stop-color="#f0f0f0"/><stop offset="0.39" stop-color="#dedede"/><stop offset="0.51" stop-color="#c4c4c4"/><stop offset="0.63" stop-color="#a2a2a2"/><stop offset="0.74" stop-color="#797979"/><stop offset="0.86" stop-color="#484848"/><stop offset="0.97" stop-color="#101010"/><stop offset="1"/></radialGradient><radialGradient id="radial-gradient-7" cx="36.38" cy="73.55" r="27.96" gradientUnits="userSpaceOnUse"><stop offset="0" stop-color="#fff"/><stop offset="0.14" stop-color="#fbfbfb"/><stop offset="0.26" stop-color="#f0f0f0"/><stop offset="0.39" stop-color="#ddd"/><stop offset="0.51" stop-color="#c2c2c2"/><stop offset="0.63" stop-color="#a0a0a0"/><stop offset="0.75" stop-color="#767676"/><stop offset="0.86" stop-color="#444"/><stop offset="0.98" stop-color="#0b0b0b"/><stop offset="1"/></radialGradient><filter id="luminosity-noclip-8" x="21.72" y="-8431.98" width="18.43" height="32766" filterUnits="userSpaceOnUse" color-interpolation-filters="sRGB"><feFlood flood-color="#fff" result="bg"/><feBlend in="SourceGraphic" in2="bg"/></filter><mask id="mask-8" x="21.72" y="-8431.98" width="18.43" height="32766" maskUnits="userSpaceOnUse"><g class="cls-66"/></mask><radialGradient id="radial-gradient-8" cx="38.28" cy="31.69" r="22.87" gradientUnits="userSpaceOnUse"><stop offset="0" stop-color="#b3b3b3"/><stop offset="1"/></radialGradient><radialGradient id="radial-gradient-9" cx="38.28" cy="31.69" r="22.87" xlink:href="#radial-gradient-7"/><filter id="luminosity-noclip-10" x="1.68" y="-8431.98" width="43.95" height="32766" filterUnits="userSpaceOnUse" color-interpolation-filters="sRGB"><feFlood flood-color="#fff" result="bg"/><feBlend in="SourceGraphic" in2="bg"/></filter><mask id="mask-10" x="1.68" y="-8431.98" width="43.95" height="32766" maskUnits="userSpaceOnUse"><g class="cls-65"/></mask><radialGradient id="radial-gradient-10" cx="43.52" cy="45.79" r="36.3" xlink:href="#radial-gradient"/><radialGradient id="radial-gradient-11" cx="43.52" cy="45.79" r="36.3" xlink:href="#radial-gradient-2"/><radialGradient id="radial-gradient-12" cx="77.3" cy="84.21" r="26.55" gradientUnits="userSpaceOnUse"><stop offset="0" stop-color="#ccc"/><stop offset="0.28" stop-color="#848484"/><stop offset="0.52" stop-color="#4b4b4b"/><stop offset="0.73" stop-color="#222"/><stop offset="0.9" stop-color="#090909"/><stop offset="1"/></radialGradient><radialGradient id="New_Gradient_Swatch_4" cx="38.24" cy="7.66" r="71.43" gradientUnits="userSpaceOnUse"><stop offset="0" stop-color="#deef08"/><stop offset="0.07" stop-color="#d4eb0a"/><stop offset="0.19" stop-color="#bade0f"/><stop offset="0.33" stop-color="#90cb18"/><stop offset="0.51" stop-color="#56b024"/><stop offset="0.52" stop-color="#52ae25"/><stop offset="1" stop-color="#060523"/></radialGradient><radialGradient id="New_Gradient_Swatch_3" cx="41.81" cy="109.6" r="56.31" gradientUnits="userSpaceOnUse"><stop offset="0" stop-color="#bfde0e"/><stop offset="0.58" stop-color="#2e8426"/><stop offset="1" stop-color="#0f1c0e"/></radialGradient><radialGradient id="New_Gradient_Swatch_3-2" cx="64.97" cy="80.64" r="42.63" xlink:href="#New_Gradient_Swatch_3"/><radialGradient id="New_Gradient_Swatch_2" cx="38.43" cy="57.55" r="47.72" gradientUnits="userSpaceOnUse"><stop offset="0" stop-color="#c1e578"/><stop offset="0.16" stop-color="#96ce1b"/><stop offset="0.51" stop-color="#96ce1b"/><stop offset="1" stop-color="#506731"/></radialGradient><mask id="mask-13" x="38.38" y="42.23" width="23.39" height="60.76" maskUnits="userSpaceOnUse"><g class="cls-1"><path class="cls-2" d="M52.39,103c-4.84,0-8.9-2.67-11.44-7.51-3.83-7.3-4.52-21.33,6.18-36.83l.43-.59A55.83,55.83,0,0,0,56,42.23c4.73,16.89,11,47.93-2,60.66A14,14,0,0,1,52.39,103Z"/></g></mask><filter id="luminosity-noclip-13" x="38.38" y="42.23" width="23.39" height="60.76" filterUnits="userSpaceOnUse" color-interpolation-filters="sRGB"><feFlood flood-color="#fff" result="bg"/><feBlend in="SourceGraphic" in2="bg"/></filter><radialGradient id="radial-gradient-13" cx="36.38" cy="73.55" r="27.96" gradientUnits="userSpaceOnUse"><stop offset="0" stop-color="#fff"/><stop offset="0.97" stop-color="#fff"/><stop offset="1" stop-color="#fff"/></radialGradient><radialGradient id="New_Gradient_Swatch_1" cx="71.98" cy="90.7" r="37.2" gradientUnits="userSpaceOnUse"><stop offset="0" stop-color="#52ae25"/><stop offset="0.23" stop-color="#48aa27"/><stop offset="0.52" stop-color="#35a12c"/><stop offset="1" stop-color="#0d2e14"/></radialGradient><linearGradient id="linear-gradient" x1="57.84" y1="59.3" x2="49.36" y2="186.54" gradientUnits="userSpaceOnUse"><stop offset="0" stop-color="#f5f5f3"/><stop offset="1" stop-color="#0a061c"/></linearGradient><radialGradient id="radial-gradient-14" cx="33.25" cy="38.12" r="57.36" xlink:href="#New_Gradient_Swatch_1"/><radialGradient id="radial-gradient-15" cx="24.36" cy="119.8" r="52.95" xlink:href="#New_Gradient_Swatch_2"/><radialGradient id="radial-gradient-16" cx="31.95" cy="114.84" r="35.66" xlink:href="#New_Gradient_Swatch_2"/><radialGradient id="radial-gradient-17" cx="22.17" cy="61.77" r="34.67" gradientUnits="userSpaceOnUse"><stop offset="0" stop-color="#c1e578"/><stop offset="0.09" stop-color="#bde36e"/><stop offset="0.25" stop-color="#b1dc54"/><stop offset="0.45" stop-color="#9dd22a"/><stop offset="0.52" stop-color="#96ce1b"/><stop offset="1" stop-color="#0d2e14"/></radialGradient><radialGradient id="radial-gradient-18" cx="63.09" cy="68.84" r="30.12" gradientUnits="userSpaceOnUse"><stop offset="0" stop-color="#c4de74"/><stop offset="0.31" stop-color="#bfde0e"/><stop offset="0.66" stop-color="#2e8426"/><stop offset="1" stop-color="#0f1c0e"/></radialGradient><linearGradient id="linear-gradient-2" x1="5.48" y1="95.59" x2="100.29" y2="-66.46" gradientUnits="userSpaceOnUse"><stop offset="0" stop-color="#f5f5f3"/><stop offset="1" stop-color="#506731"/></linearGradient><linearGradient id="linear-gradient-3" x1="51.11" y1="125.15" x2="17.39" y2="81.92" gradientUnits="userSpaceOnUse"><stop offset="0" stop-color="#f5f5f3"/><stop offset="1" stop-color="#4d0604"/></linearGradient><mask id="mask-15" x="1.68" y="4.42" width="43.95" height="83.34" maskUnits="userSpaceOnUse"><g class="cls-15"><path class="cls-16" d="M1.68,87.34C1.68,69.54,14,49.57,24.82,32c6.09-9.9,11.9-19.32,15-27.53C45.13,16,45.62,24.71,45.63,27.3A32.26,32.26,0,0,1,44.35,37c-1.48,2.07-5.13,5.09-9.32,8.56-10.91,9-27.9,23.07-33.34,42.18C1.68,87.62,1.68,87.48,1.68,87.34Z"/></g></mask><filter id="luminosity-noclip-14" x="1.68" y="4.42" width="43.95" height="83.34" filterUnits="userSpaceOnUse" color-interpolation-filters="sRGB"><feFlood flood-color="#fff" result="bg"/><feBlend in="SourceGraphic" in2="bg"/></filter><radialGradient id="radial-gradient-19" cx="43.52" cy="45.79" r="36.3" gradientUnits="userSpaceOnUse"><stop offset="0" stop-color="#fff"/><stop offset="0.58" stop-color="#fcfcfb"/><stop offset="1" stop-color="#f5f5f3"/></radialGradient><mask id="mask-17" x="27.39" y="45.94" width="49.47" height="76.27" maskUnits="userSpaceOnUse"><g class="cls-3"><path class="cls-18" d="M54.24,122.21c-13.37,0-20.86-8.59-24.13-13.71a35.77,35.77,0,0,1-2.71-5.13l0,0a21.4,21.4,0,0,0,16.31,8,20.2,20.2,0,0,0,12.75-4.68l.05,0,0,0c14.18-12.92,9.81-42.09,5.1-60.71C70,59.8,76.86,73.24,76.86,87.34c0,15.47-6.35,28-17.43,34.45a33.6,33.6,0,0,1-5.19.42Z"/></g></mask><filter id="luminosity-noclip-15" x="27.39" y="45.94" width="49.47" height="76.27" filterUnits="userSpaceOnUse" color-interpolation-filters="sRGB"><feFlood flood-color="#fff" result="bg"/><feBlend in="SourceGraphic" in2="bg"/></filter><radialGradient id="radial-gradient-20" cx="77.3" cy="84.21" r="26.55" gradientUnits="userSpaceOnUse"><stop offset="0" stop-color="#fff"/><stop offset="0.13" stop-color="#fffffb"/><stop offset="0.26" stop-color="#fffdf0"/><stop offset="0.39" stop-color="#fffbdc"/><stop offset="0.51" stop-color="#fff8c1"/><stop offset="0.63" stop-color="#fff49e"/><stop offset="0.76" stop-color="#ffef73"/><stop offset="0.88" stop-color="#ffea40"/><stop offset="1" stop-color="#ffe307"/><stop offset="1" stop-color="#ffe306"/></radialGradient><mask id="mask-19" x="3.85" y="48.54" width="43.76" height="78.18" maskUnits="userSpaceOnUse"><g class="cls-5"><path class="cls-6" d="M39.55,126.72c-18.2,0-31.2-9.68-35.7-26.57,0-23.67,20.24-40.44,33.67-51.55l.07-.06-1.06,1.55A116.8,116.8,0,0,0,24.76,70.48a41.06,41.06,0,0,0-2.83,8.94c-3.8,8.57-2,21.47,4.39,31.49C31.55,119.06,39,124.29,47.62,126A46,46,0,0,1,39.55,126.72Z"/></g></mask><filter id="luminosity-noclip-16" x="3.85" y="48.54" width="43.76" height="78.18" filterUnits="userSpaceOnUse" color-interpolation-filters="sRGB"><feFlood flood-color="#fff" result="bg"/><feBlend in="SourceGraphic" in2="bg"/></filter><radialGradient id="radial-gradient-21" cx="11.7" cy="121.52" r="26.5" gradientUnits="userSpaceOnUse"><stop offset="0" stop-color="#fff"/><stop offset="0.16" stop-color="#fffffc"/><stop offset="0.29" stop-color="#fffdf1"/><stop offset="0.41" stop-color="#fffce0"/><stop offset="0.52" stop-color="#fff9c7"/><stop offset="0.64" stop-color="#fff5a8"/><stop offset="0.75" stop-color="#fff181"/><stop offset="0.85" stop-color="#ffec53"/><stop offset="0.96" stop-color="#ffe61f"/><stop offset="1" stop-color="#ffe306"/></radialGradient><mask id="mask-21" x="41.01" y="55.23" width="12.04" height="47.31" maskUnits="userSpaceOnUse"><g class="cls-8"><path class="cls-9" d="M53,55.23l-.19.55-.55,1.55-.84,2.38c-.33.92-.69,1.95-1.07,3.07s-.79,2.34-1.22,3.63-.85,2.64-1.27,4-.82,2.86-1.22,4.34-.75,3-1,4.49-.57,3-.75,4.51c-.1.74-.15,1.48-.23,2.21l-.06,1.08c0,.36,0,.72,0,1.07a29.81,29.81,0,0,0,.17,4.05c.1.63.16,1.26.3,1.85.06.3.11.59.18.88l.23.83a18.25,18.25,0,0,0,1.1,2.89,17.42,17.42,0,0,0,1.23,2.12,14.47,14.47,0,0,0,1,1.3l.36.46-.5-.29a9.73,9.73,0,0,1-1.38-.94,13.49,13.49,0,0,1-1.92-1.81c-.32-.4-.68-.82-1-1.3a15.65,15.65,0,0,1-.94-1.57l-.44-.88c-.13-.31-.25-.62-.39-.94a20.34,20.34,0,0,1-.68-2,24.55,24.55,0,0,1-.75-4.52,29.66,29.66,0,0,1,0-4.85,40.12,40.12,0,0,1,.69-4.91c.33-1.62.75-3.21,1.23-4.76.25-.77.49-1.53.77-2.27s.54-1.47.84-2.18c.57-1.42,1.2-2.76,1.82-4s1.26-2.41,1.88-3.46,1.22-2,1.78-2.81,1.07-1.51,1.5-2.07.79-1,1-1.28Z"/></g></mask><filter id="luminosity-noclip-17" x="41.01" y="55.23" width="12.04" height="47.31" filterUnits="userSpaceOnUse" color-interpolation-filters="sRGB"><feFlood flood-color="#fff" result="bg"/><feBlend in="SourceGraphic" in2="bg"/></filter><radialGradient id="radial-gradient-22" cx="35.2" cy="79.59" r="17.41" gradientUnits="userSpaceOnUse"><stop offset="0" stop-color="#fff"/><stop offset="0.95" stop-color="#fff"/><stop offset="1" stop-color="#fff"/></radialGradient><mask id="mask-23" x="21.72" y="15.5" width="18.43" height="36.36" maskUnits="userSpaceOnUse"><g class="cls-12"><path class="cls-13" d="M39.95,15.5s.07.66.14,1.8a15.23,15.23,0,0,1,0,2.07c0,.8,0,1.74-.17,2.73l-.21,1.54-.12.81c-.05.27-.12.55-.18.83L39.05,27c-.13.59-.35,1.17-.52,1.77a36.47,36.47,0,0,1-1.34,3.62c-.25.61-.55,1.2-.83,1.8s-.58,1.2-.91,1.78l-1,1.74L33.4,39.37c-.34.56-.73,1.07-1.11,1.6s-.73,1-1.13,1.52L30,43.91l-1.15,1.31c-.74.86-1.51,1.61-2.19,2.32C25.26,48.92,24,50,23.14,50.73s-1.42,1.12-1.42,1.12.35-.56,1-1.5c.33-.47.71-1.05,1.18-1.69l1.53-2.18c.54-.81,1.17-1.65,1.78-2.57l1-1.4,1-1.48c.66-1,1.31-2.05,2-3.12.32-.54.63-1.08,1-1.62L33,34.63c.32-.55.61-1.11.89-1.68s.59-1.11.84-1.68.51-1.13.77-1.68.46-1.12.7-1.66.47-1.08.65-1.62l.57-1.58c.09-.26.19-.51.28-.76l.23-.75.45-1.43c.16-.46.25-.9.37-1.32l.32-1.2c.22-.75.35-1.44.47-2C39.78,16.14,39.95,15.5,39.95,15.5Z"/></g></mask><filter id="luminosity-noclip-18" x="21.72" y="15.5" width="18.43" height="36.36" filterUnits="userSpaceOnUse" color-interpolation-filters="sRGB"><feFlood flood-color="#fff" result="bg"/><feBlend in="SourceGraphic" in2="bg"/></filter><radialGradient id="radial-gradient-23" cx="38.28" cy="31.69" r="22.87" xlink:href="#radial-gradient-13"/><linearGradient id="linear-gradient-4" x1="101.45" y1="36.66" x2="478.11" y2="117.33" xlink:href="#New_Gradient_Swatch_3"/><linearGradient id="linear-gradient-5" x1="102.85" y1="30.1" x2="479.52" y2="110.77" xlink:href="#New_Gradient_Swatch_3"/><linearGradient id="linear-gradient-6" x1="103.15" y1="28.72" x2="479.81" y2="109.39" xlink:href="#New_Gradient_Swatch_3"/><linearGradient id="linear-gradient-7" x1="104.6" y1="21.94" x2="481.27" y2="102.6" xlink:href="#New_Gradient_Swatch_3"/><linearGradient id="linear-gradient-8" x1="106.73" y1="11.99" x2="483.4" y2="92.66" xlink:href="#New_Gradient_Swatch_3"/><linearGradient id="linear-gradient-9" x1="107.59" y1="8" x2="484.25" y2="88.66" xlink:href="#New_Gradient_Swatch_3"/><linearGradient id="linear-gradient-10" x1="107.75" y1="7.23" x2="484.42" y2="87.9" xlink:href="#New_Gradient_Swatch_3"/><linearGradient id="linear-gradient-11" x1="111.05" y1="-8.18" x2="487.72" y2="72.48" xlink:href="#New_Gradient_Swatch_3"/><linearGradient id="linear-gradient-12" x1="111.69" y1="-11.15" x2="488.35" y2="69.52" xlink:href="#New_Gradient_Swatch_3"/><linearGradient id="linear-gradient-13" x1="112.84" y1="-16.53" x2="489.51" y2="64.14" xlink:href="#New_Gradient_Swatch_3"/><linearGradient id="linear-gradient-14" x1="114.48" y1="-24.19" x2="491.15" y2="56.47" xlink:href="#New_Gradient_Swatch_3"/><linearGradient id="linear-gradient-15" x1="116.02" y1="-31.41" x2="492.69" y2="49.26" xlink:href="#New_Gradient_Swatch_3"/><linearGradient id="linear-gradient-16" x1="91.21" y1="84.47" x2="467.87" y2="165.14" xlink:href="#New_Gradient_Swatch_3"/><linearGradient id="linear-gradient-17" x1="92.25" y1="79.61" x2="468.92" y2="160.28" xlink:href="#New_Gradient_Swatch_3"/><linearGradient id="linear-gradient-18" x1="94.43" y1="69.41" x2="471.1" y2="150.08" xlink:href="#New_Gradient_Swatch_3"/><linearGradient id="linear-gradient-19" x1="96.26" y1="60.88" x2="472.93" y2="141.55" xlink:href="#New_Gradient_Swatch_3"/><linearGradient id="linear-gradient-20" x1="97.62" y1="54.53" x2="474.29" y2="135.2" xlink:href="#New_Gradient_Swatch_3"/><linearGradient id="linear-gradient-21" x1="99.97" y1="43.54" x2="476.64" y2="124.21" xlink:href="#New_Gradient_Swatch_3"/><linearGradient id="linear-gradient-22" x1="101.7" y1="35.5" x2="478.36" y2="116.16" xlink:href="#New_Gradient_Swatch_3"/><linearGradient id="linear-gradient-23" x1="103.19" y1="28.55" x2="479.85" y2="109.21" xlink:href="#New_Gradient_Swatch_3"/></defs><title>logo-dark</title><g class="cls-19"><g id="Layer_2" data-name="Layer 2"><g id="Layer_1-2" data-name="Layer 1"><path class="cls-20" d="M47.31,27.29a33.51,33.51,0,0,1-1.43,10.48C39.92,46.68,1.34,67,1.62,100.44A51.86,51.86,0,0,1,0,87.34C0,57.34,33.21,22.64,39.55,0,46.48,13.27,47.29,23.73,47.31,27.29Z"/><path class="cls-21" d="M24.09,80.09C16.92,95.6,30.25,129,60.18,123.94a41.33,41.33,0,0,1-20.63,5C18.9,129,5.94,117.09,1.62,100.44,1.34,67,39.92,46.68,45.88,37.77,42.68,48,34.6,53.79,26.81,71.39a38.45,38.45,0,0,0-2.72,8.7Z"/><path class="cls-22" d="M55.08,105c20.15-18.36-.12-73.78-.55-74.94v0c11.64,19,24.58,37.55,24.58,57.3,0,15.89-6.5,29.58-18.91,36.6h0C30.25,129,16.92,95.6,24.09,80.09,20,102.48,40.62,116.67,55.08,105Z"/><path class="cls-23" d="M54.53,30.05c.43,1.16,20.69,56.58.55,74.94-17.36,2.89-27.25-22.33-9.79-47.63C46.68,55.34,57.56,41.65,54.53,30.05Z"/><g class="cls-24"><g class="cls-24"><path class="cls-25" d="M52.39,103c-4.84,0-8.9-2.67-11.44-7.51-3.83-7.3-4.52-21.33,6.18-36.83l.43-.59A55.83,55.83,0,0,0,56,42.23c4.73,16.89,11,47.93-2,60.66A14,14,0,0,1,52.39,103Z"/></g></g><path class="cls-26" d="M79.09,87.33c0,15.89-6.5,29.58-18.91,36.6h0c-9.56,1.6-17.43-.71-23.47-5.1l.84.2c46.07,3.32,37.83-49.91,32.73-62.35C75.45,66.71,79.09,76.85,79.09,87.33Z"/><path class="cls-27" d="M54.53,30.06c.59,1.6,20.61,56.64.54,74.93a14.77,14.77,0,0,1-7.77-.69h0c19.47-17.12,9-66.52,7.4-73.44Z"/><path class="cls-28" d="M32.06,50.22l0,0C18.92,61.3,1.72,77.67,1.61,99.87.25,74.28,9.27,66.53,27.27,45.41A55.19,55.19,0,0,0,39.55,0c6.92,13.27,7.73,23.72,7.76,27.28a33.64,33.64,0,0,1-1.44,10.48C43.92,40.67,38.49,44.8,32.06,50.22Z"/><path class="cls-29" d="M1.61,99.87C1.72,77.67,18.92,61.3,32,50.25,13.4,68.94,1.57,97,12.14,118.91h0A38.61,38.61,0,0,1,1.64,100.57c0-.2,0-.41,0-.62C1.62,99.92,1.61,99.9,1.61,99.87Z"/><path class="cls-30" d="M24.09,80.08h0l-.34,1-.17.5-.13.52-.26,1c-.07.34-.12.7-.19,1a26.88,26.88,0,0,0-.37,4.19c0,.7,0,1.4,0,2.1s.09,1.4.19,2.09a37.62,37.62,0,0,0,.73,4.13c.17.68.32,1.36.54,2s.39,1.34.63,2,.46,1.32.74,2l.4,1c.14.32.3.63.44.95l.45.94c.15.31.33.62.49.92l.49.92c.17.3.36.6.54.9l.54.89c.19.29.39.57.59.86l.59.86c.2.28.42.55.64.83l.63.83c.21.27.45.53.68.79.45.53.9,1.05,1.4,1.53s1,1,1.5,1.44,1,.93,1.59,1.34,1.08.87,1.67,1.24,1.14.79,1.75,1.11a31.65,31.65,0,0,0,3.72,1.86c.65.24,1.29.52,2,.73l2,.59,2,.45c.69.12,1.39.19,2.08.3l.52.07.53,0,1.05.07c.35,0,.7.05,1.06.06h1.06c1.42,0,2.83-.12,4.25-.21a35.65,35.65,0,0,1-4.23.67l-1.07.11c-.36,0-.72,0-1.08,0l-1.08,0h-.54l-.54,0c-.72-.05-1.44-.09-2.16-.17l-2.15-.33c-.71-.15-1.41-.34-2.12-.51s-1.38-.45-2.08-.67a27.05,27.05,0,0,1-4-1.8c-.66-.32-1.26-.74-1.88-1.12s-1.2-.82-1.79-1.25a19.87,19.87,0,0,1-1.69-1.38c-.56-.46-1.08-1-1.59-1.5s-1-1-1.49-1.6c-.24-.27-.49-.54-.72-.82l-.67-.86c-.22-.29-.45-.57-.66-.87l-.61-.9c-.2-.3-.41-.6-.6-.91l-.56-.94c-.18-.31-.38-.62-.55-.94l-.5-1c-.17-.32-.34-.64-.5-1l-.44-1c-.14-.33-.3-.66-.43-1l-.39-1c-.27-.67-.49-1.36-.71-2.05s-.42-1.39-.6-2.09-.32-1.41-.46-2.12a33.76,33.76,0,0,1-.55-4.3c-.06-.72,0-1.45-.06-2.17s0-1.44.09-2.16a25.7,25.7,0,0,1,.73-4.25,19.06,19.06,0,0,1,1.54-4h0Z"/><path class="cls-31" d="M45.88,37.77l-.5.74a20.28,20.28,0,0,1-1.62,1.94c-.74.8-1.69,1.73-2.8,2.76s-2.39,2.18-3.79,3.4l-4.52,4C31,52,29.38,53.47,27.66,55S24.23,58.25,22.51,60s-3.41,3.5-5,5.36S14.32,69.08,12.86,71s-2.78,3.9-3.92,5.9c-.29.5-.6,1-.86,1.48L7.3,79.87c-.55,1-1,2-1.42,2.91S5.09,84.7,4.7,85.61s-.64,1.84-.94,2.71A49.19,49.19,0,0,0,2.52,93.2L2.3,94.27c-.06.35-.1.68-.15,1L1.9,97c-.12,1.08-.16,1.93-.21,2.51l-.07.89,0-.89c0-.58-.06-1.44,0-2.53,0-.54.07-1.15.1-1.81,0-.33,0-.67.07-1l.15-1.09L2,91.93l.08-.61.13-.62c.18-.84.34-1.72.58-2.63s.5-1.86.81-2.82.66-2,1.08-3a50.68,50.68,0,0,1,2.94-6.12,63.24,63.24,0,0,1,3.89-6.12c1.48-2,3-4,4.67-5.84s3.39-3.68,5.14-5.41,3.56-3.33,5.3-4.89c3.53-3.07,6.94-5.76,9.88-8.05l4-3.14c1.17-1,2.19-1.79,3-2.52a23.9,23.9,0,0,0,1.78-1.76Z"/><path class="cls-32" d="M55.08,105l.6-.64c.2-.21.43-.48.69-.8s.56-.69.87-1.12a23.67,23.67,0,0,0,2-3.26,30.83,30.83,0,0,0,1.86-4.57,42.23,42.23,0,0,0,1.34-5.68,58.08,58.08,0,0,0,.68-6.5c.12-2.27.1-4.61,0-7s-.26-4.81-.52-7.22-.55-4.83-.93-7.2-.77-4.69-1.21-6.94c-.87-4.49-1.84-8.65-2.72-12.21-1.78-7.11-3.22-11.8-3.22-11.8a120,120,0,0,1,4.15,11.54c.55,1.76,1.11,3.67,1.65,5.71s1.1,4.2,1.59,6.45,1,4.58,1.37,7,.73,4.83,1,7.28.41,4.92.47,7.35a71,71,0,0,1-.18,7.14A44.35,44.35,0,0,1,62,94.91a27.9,27.9,0,0,1-2.21,4.57,21.21,21.21,0,0,1-2.29,3.16l-.51.57-.48.48c-.3.3-.55.54-.77.73Z"/><path class="cls-33" d="M45.87,37.78C43.28,46,37.51,51.41,31.28,62.46c-7.79,5.87-13.93,11.19-18.66,16.86a53.78,53.78,0,0,0-11,21.06.6.6,0,0,0,0-.1c0-.15,0-.39.06-.73.05-.58.1-1.43.21-2.51.07-.54.16-1.13.25-1.77.05-.32.09-.66.15-1l.22-1.07a49.07,49.07,0,0,1,1.24-4.88c.31-.87.59-1.79.95-2.71s.72-1.89,1.17-2.84.87-1.95,1.42-2.91l.79-1.48c.26-.5.57-1,.86-1.48,1.14-2,2.53-3.93,3.92-5.9s3-3.86,4.62-5.68,3.31-3.65,5-5.36,3.23-3.16,4.83-4.64l.32-.3c1.72-1.56,3.37-3.07,5-4.46l4.52-4c1.41-1.22,2.68-2.36,3.8-3.39s2.05-2,2.8-2.76a19.88,19.88,0,0,0,1.62-1.95l.35-.53.11-.16Z"/><path class="cls-34" d="M60.14,123.93l-.08,0c-1.38.09-2.75.23-4.13.2H54.87c-.35,0-.7,0-1.06-.06L52.76,124l-.53,0-.52-.08c-.69-.1-1.39-.17-2.08-.3l-2-.45-2-.59c-.67-.21-1.3-.49-2-.73A31.42,31.42,0,0,1,39.9,120a14.92,14.92,0,0,1-1.46-.92l-.3-.2c-.59-.37-1.12-.82-1.67-1.24s-1.07-.88-1.58-1.34-1-.95-1.51-1.44-1-1-1.4-1.53c-.22-.26-.46-.52-.68-.79l-.63-.82c-.21-.27-.43-.54-.63-.83l-.59-.86c-.19-.29-.4-.57-.59-.86l-.54-.9c-.18-.3-.37-.59-.54-.89l-.49-.92c-.16-.31-.33-.61-.49-.92l-.45-.95c-.15-.31-.3-.63-.44-.95l-.4-1c-.28-.64-.51-1.3-.74-2s-.44-1.33-.63-2-.37-1.35-.54-2a36.78,36.78,0,0,1-.73-4.13c-.1-.69-.12-1.39-.2-2.09s0-1.4,0-2.1a27.24,27.24,0,0,1,.37-4.2c.06-.35.11-.69.18-1l.26-1,.12-.52.17-.5.34-1c-2.58,14.15,4.7,25,14.06,28.16h0a22,22,0,0,0,8.25,10.67A29,29,0,0,0,60.14,123.93Z"/><g class="cls-35"><g class="cls-35"><path class="cls-36" d="M1.68,87.34C1.68,69.54,14,49.57,24.82,32c6.09-9.9,11.9-19.32,15-27.53C45.13,16,45.62,24.71,45.63,27.3A32.26,32.26,0,0,1,44.35,37c-1.48,2.07-5.13,5.09-9.32,8.56-10.91,9-27.9,23.07-33.34,42.18C1.68,87.62,1.68,87.48,1.68,87.34Z"/></g></g><g class="cls-37"><g class="cls-37"><path class="cls-38" d="M54.24,122.21c-13.37,0-20.86-8.59-24.13-13.71a35.77,35.77,0,0,1-2.71-5.13l0,0a21.4,21.4,0,0,0,16.31,8,20.2,20.2,0,0,0,12.75-4.68l.05,0,0,0c14.18-12.92,9.81-42.09,5.1-60.71C70,59.8,76.86,73.24,76.86,87.34c0,15.47-6.35,28-17.43,34.45a33.6,33.6,0,0,1-5.19.42Z"/></g></g><g class="cls-39"><g class="cls-39"><path class="cls-40" d="M39.55,126.72c-18.2,0-31.2-9.68-35.7-26.57,0-23.67,20.24-40.44,33.67-51.55l.07-.06-1.06,1.55A116.8,116.8,0,0,0,24.76,70.48a41.06,41.06,0,0,0-2.83,8.94c-3.8,8.57-2,21.47,4.39,31.49C31.55,119.06,39,124.29,47.62,126A46,46,0,0,1,39.55,126.72Z"/></g></g><g class="cls-41"><g class="cls-41"><path class="cls-42" d="M53,55.23l-.19.55-.55,1.55-.84,2.38c-.33.92-.69,1.95-1.07,3.07s-.79,2.34-1.22,3.63-.85,2.64-1.27,4-.82,2.86-1.22,4.34-.75,3-1,4.49-.57,3-.75,4.51c-.1.74-.15,1.48-.23,2.21l-.06,1.08c0,.36,0,.72,0,1.07a29.81,29.81,0,0,0,.17,4.05c.1.63.16,1.26.3,1.85.06.3.11.59.18.88l.23.83a18.25,18.25,0,0,0,1.1,2.89,17.42,17.42,0,0,0,1.23,2.12,14.47,14.47,0,0,0,1,1.3l.36.46-.5-.29a9.73,9.73,0,0,1-1.38-.94,13.49,13.49,0,0,1-1.92-1.81c-.32-.4-.68-.82-1-1.3a15.65,15.65,0,0,1-.94-1.57l-.44-.88c-.13-.31-.25-.62-.39-.94a20.34,20.34,0,0,1-.68-2,24.55,24.55,0,0,1-.75-4.52,29.66,29.66,0,0,1,0-4.85,40.12,40.12,0,0,1,.69-4.91c.33-1.62.75-3.21,1.23-4.76.25-.77.49-1.53.77-2.27s.54-1.47.84-2.18c.57-1.42,1.2-2.76,1.82-4s1.26-2.41,1.88-3.46,1.22-2,1.78-2.81,1.07-1.51,1.5-2.07.79-1,1-1.28Z"/></g></g><g class="cls-43"><g class="cls-43"><path class="cls-44" d="M39.95,15.5s.07.66.14,1.8a15.23,15.23,0,0,1,0,2.07c0,.8,0,1.74-.17,2.73l-.21,1.54-.12.81c-.05.27-.12.55-.18.83L39.05,27c-.13.59-.35,1.17-.52,1.77a36.47,36.47,0,0,1-1.34,3.62c-.25.61-.55,1.2-.83,1.8s-.58,1.2-.91,1.78l-1,1.74L33.4,39.37c-.34.56-.73,1.07-1.11,1.6s-.73,1-1.13,1.52L30,43.91l-1.15,1.31c-.74.86-1.51,1.61-2.19,2.32C25.26,48.92,24,50,23.14,50.73s-1.42,1.12-1.42,1.12.35-.56,1-1.5c.33-.47.71-1.05,1.18-1.69l1.53-2.18c.54-.81,1.17-1.65,1.78-2.57l1-1.4,1-1.48c.66-1,1.31-2.05,2-3.12.32-.54.63-1.08,1-1.62L33,34.63c.32-.55.61-1.11.89-1.68s.59-1.11.84-1.68.51-1.13.77-1.68.46-1.12.7-1.66.47-1.08.65-1.62l.57-1.58c.09-.26.19-.51.28-.76l.23-.75.45-1.43c.16-.46.25-.9.37-1.32l.32-1.2c.22-.75.35-1.44.47-2C39.78,16.14,39.95,15.5,39.95,15.5Z"/></g></g><path class="cls-45" d="M110.59,56.87c0,2.27-2,3.31-3.77,3.31s-3.71-1.1-3.71-3.25V22.15a3.5,3.5,0,0,1,3.77-3.38h13.26c10.79,0,17.1,6.11,17.1,15.28,0,8.78-6.37,14.63-17.29,14.63h-9.36Zm0-14.63H120c6.37,0,9.88-3.25,9.88-8.19,0-5.33-3.45-8.84-9.62-8.84h-9.62Z"/><path class="cls-46" d="M145.13,60.18a3.42,3.42,0,0,1-3.71-3.25V21.37a3.42,3.42,0,0,1,3.71-3.25,3.51,3.51,0,0,1,3.71,3.25V56.93A3.51,3.51,0,0,1,145.13,60.18Z"/><path class="cls-47" d="M185.61,30.47V56.8c0,2-1.5,3.38-3.71,3.38s-3.38-1.1-3.64-2.73a17,17,0,0,1-10.14,3.38C158.7,60.83,153,54,153,43.54c0-10.08,6.44-17.1,16-17.1a16,16,0,0,1,9.3,3.25c.33-1.56,1.56-2.6,3.64-2.6S185.61,28.46,185.61,30.47ZM178.2,49.26V38a9.93,9.93,0,0,0-8.71-5c-5.46,0-9.1,4.42-9.1,10.6,0,6.44,3.38,10.66,8.52,10.66C172.74,54.27,176.7,52.58,178.2,49.26Z"/><path class="cls-48" d="M194.54,48.42A3.54,3.54,0,0,1,198,51.15c.78,2.34,4.68,3.31,8.19,3.31,4.68,0,7.8-1.89,7.8-4.49s-3.9-3-8.06-3.31C198.7,46,191,45.36,191,36.84c0-6.24,5.85-10.4,14.63-10.4,5.07,0,12.16.91,14.56,7.09.85,2.67-1.56,4.35-3.64,4.35a3,3,0,0,1-3.19-2c-1.23-2.73-5.4-3-7.74-3-4.35,0-7.22,1.63-7.22,4,0,3.19,3.45,2.6,7.87,3.12,7.28.85,15.08,1.37,15.08,9.95,0,6.44-6.11,10.86-15.21,10.86-5.46,0-13.46-1.17-15.34-8.39C190.18,50,192.46,48.42,194.54,48.42Z"/><path class="cls-49" d="M246.57,56.61a3.6,3.6,0,0,1-2.15,3.12,9.65,9.65,0,0,1-5.33,1.1c-8.45,0-10.47-5.92-10.47-12.22V33.27h-2.47c-2.41,0-3.58-1.56-3.58-3.06a3.25,3.25,0,0,1,3.58-3.12h2.47V21.5a3.38,3.38,0,0,1,3.64-3.38A3.47,3.47,0,0,1,236,21.5v5.59H241a3.23,3.23,0,0,1,3.51,3.12c0,1.56-1.24,3.06-3.51,3.06H236V48.61c0,2.86.33,5.85,3.12,5.85a6.54,6.54,0,0,0,2.08-.46C244.1,52.38,246.57,54.33,246.57,56.61Z"/><path class="cls-50" d="M253,25.47c-1.95,0-3.77-1-3.77-3.25v-.85c0-2.21,1.82-3.25,3.77-3.25s3.77,1,3.77,3.25v.85C256.81,24.43,254.86,25.47,253,25.47Zm0,1.63c1.82,0,3.71,1.1,3.71,3.12V57c0,2.15-1.89,3.19-3.71,3.19s-3.71-1-3.71-3.19V30.28C249.34,28.2,251.29,27.09,253,27.09Z"/><path class="cls-51" d="M277.64,32.81c-5.72,0-9.49,4.29-9.49,10.92,0,6.44,3.9,10.66,9.75,10.66a10.64,10.64,0,0,0,7.54-2.93c3.77-3.83,8.26.58,5,4.16a16.55,16.55,0,0,1-12.61,5.2c-10.34,0-17.16-6.83-17.16-17,0-10.53,6.76-17.36,17-17.36,4.75,0,8.84,1.24,12.35,5.27A3.26,3.26,0,1,1,285.12,36,9.67,9.67,0,0,0,277.64,32.81Z"/><path class="cls-52" d="M350.44,52.9a23.64,23.64,0,0,1-16.84,7.93c-12.81,0-21.13-8.78-20.87-21.71,0-12.61,8.45-21,21.06-21,5.72,0,11.7,2.08,15.54,6.18,3.71,3.9-1.75,8.39-5.52,4.42a13.71,13.71,0,0,0-10-4.16c-8.13,0-13.59,6-13.59,14.76s5.46,15,13.46,15a14.32,14.32,0,0,0,10.4-4.75V42.89h-9.49c-2.47,0-3.58-1.56-3.58-3.12a3.28,3.28,0,0,1,3.58-3.32h12.94c3,0,3.9,1.43,3.9,3.51V50.17A3.93,3.93,0,0,1,350.44,52.9Z"/><path class="cls-53" d="M376.73,30.28c0,2.08-1.5,3.38-3.83,3.38-5.46,0-7.41,4.16-7.41,10.86V56.87a3.39,3.39,0,0,1-3.58,3.31c-2.28,0-3.77-1.37-3.77-3.31V30.41a3.56,3.56,0,0,1,3.77-3.32,3.35,3.35,0,0,1,3.58,3.32v.39a8.8,8.8,0,0,1,7.41-3.71C375.24,27.09,376.73,28.07,376.73,30.28Z"/><path class="cls-54" d="M400.79,52.12c4-3.57,8.52,1.37,4.88,4.81-3.05,2.92-7.47,4-11.76,3.9-10.21,0-17.16-6.7-17.16-16.45,0-10.66,6.57-17.94,17-17.94S410,33.27,410,43.35c0,2.15-.39,3.9-4.09,3.9H384.28a9.58,9.58,0,0,0,9.43,7.15A11.38,11.38,0,0,0,400.79,52.12ZM384.21,41.46h18.92c-.45-5.14-3.25-8.58-9.36-8.58C388.7,32.88,385.12,36.32,384.21,41.46Z"/><path class="cls-55" d="M438.21,52.12c4-3.57,8.52,1.37,4.88,4.81-3.05,2.92-7.47,4-11.76,3.9-10.21,0-17.16-6.7-17.16-16.45,0-10.66,6.57-17.94,17-17.94s16.25,6.83,16.32,16.9c0,2.15-.39,3.9-4.09,3.9H421.7a9.58,9.58,0,0,0,9.43,7.15A11.38,11.38,0,0,0,438.21,52.12ZM421.64,41.46h18.92c-.46-5.14-3.25-8.58-9.36-8.58C426.12,32.88,422.55,36.32,421.64,41.46Z"/><path class="cls-56" d="M486,42.11V56.8c0,2-1.36,3.38-3.71,3.38s-3.71-1.37-3.71-3.38V42c0-5.4-2.47-9-8-9a11.12,11.12,0,0,0-10.14,11.12V56.87c0,2.08-1.23,3.31-3.58,3.31s-3.83-1.23-3.83-3.31V30.41a3.42,3.42,0,0,1,3.71-3.32c1.82,0,3.71,1.17,3.71,3.19v.46a16.12,16.12,0,0,1,11.25-4.29C480.74,26.44,486,32.81,486,42.11Z"/><path class="cls-57" d="M110.59,106.87c0,2.27-2,3.31-3.77,3.31s-3.71-1.1-3.71-3.25V72.15a3.5,3.5,0,0,1,3.77-3.38h13.26c10.79,0,17.1,6.11,17.1,15.28,0,8.78-6.37,14.63-17.29,14.63h-9.36Zm0-14.63H120c6.37,0,9.88-3.25,9.88-8.19,0-5.33-3.45-8.84-9.62-8.84h-9.62Z"/><path class="cls-58" d="M175,93.8c-.13,10.21-7.09,17-17.29,17s-17.16-6.83-17.29-17,7-17.36,17.29-17.36S175,83.47,175,93.8Zm-7.61,0c0-6.37-3.83-10.85-9.69-10.85s-9.69,4.48-9.69,10.85,3.84,10.53,9.69,10.53S167.42,100,167.42,93.8Z"/><path class="cls-59" d="M180,77.09a4,4,0,0,1,3.38,2.21l8.45,19.31L200,81.9a3.53,3.53,0,0,1,3.38-2.21,3.65,3.65,0,0,1,3.44,2.15L215,98.74l8.39-19.31a3.54,3.54,0,0,1,3.51-2.34,3.42,3.42,0,0,1,3.25,4.81l-11.51,27c-.52,1.36-1.62,1.88-3.31,1.88A3.66,3.66,0,0,1,211.8,109L203.48,91.4,195,108.95a3.63,3.63,0,0,1-3.51,1.88,3.19,3.19,0,0,1-3.32-1.95L176.44,82C175.27,79.24,177.81,77.09,180,77.09Z"/><path class="cls-60" d="M256.22,102.12c4-3.57,8.52,1.37,4.88,4.81-3.06,2.92-7.48,4-11.77,3.9-10.21,0-17.16-6.7-17.16-16.45,0-10.66,6.57-17.94,17-17.94s16.25,6.83,16.32,16.9c0,2.15-.39,3.9-4.1,3.9H239.71a9.58,9.58,0,0,0,9.43,7.15A11.38,11.38,0,0,0,256.22,102.12ZM239.65,91.46h18.92c-.46-5.14-3.25-8.58-9.36-8.58C244.13,82.88,240.56,86.32,239.65,91.46Z"/><path class="cls-61" d="M289.45,80.28c0,2.08-1.5,3.38-3.83,3.38-5.46,0-7.41,4.16-7.41,10.86v12.35a3.39,3.39,0,0,1-3.58,3.31c-2.28,0-3.77-1.37-3.77-3.31V80.41a3.56,3.56,0,0,1,3.77-3.32,3.35,3.35,0,0,1,3.58,3.32v.39a8.8,8.8,0,0,1,7.41-3.71C288,77.09,289.45,78.07,289.45,80.28Z"/><path class="cls-62" d="M310.77,106.67V72.09c0-2.21,1.89-3.32,3.83-3.32s3.77,1.1,3.77,3.32v31.59H339.7c2.54,0,3.9,1.69,3.9,3.25s-1.37,3.25-3.9,3.25h-25C311.87,110.18,310.77,108.95,310.77,106.67Z"/><path class="cls-63" d="M365.23,106.61a3.6,3.6,0,0,1-2.14,3.12,9.65,9.65,0,0,1-5.33,1.1c-8.45,0-10.47-5.92-10.47-12.22V83.27h-2.47c-2.41,0-3.58-1.56-3.58-3.06a3.25,3.25,0,0,1,3.58-3.12h2.47V71.5a3.38,3.38,0,0,1,3.64-3.38,3.47,3.47,0,0,1,3.71,3.38v5.59h5.07a3.23,3.23,0,0,1,3.51,3.12c0,1.56-1.24,3.06-3.51,3.06h-5.07V98.61c0,2.86.32,5.85,3.12,5.85a6.54,6.54,0,0,0,2.08-.46C362.76,102.38,365.23,104.33,365.23,106.61Z"/><path class="cls-64" d="M398.59,71.37v35.49c0,2.08-1.37,3.31-3.77,3.31s-3.45-1.17-3.51-3.12a15.06,15.06,0,0,1-9.62,3.71c-9.75,0-15.73-7.15-15.73-17.49,0-9.82,6.44-16.84,16-16.84a15.42,15.42,0,0,1,9.23,3.38V71.37c0-2.27,1.82-3.25,3.64-3.25S398.59,69.1,398.59,71.37Zm-7.28,27.11-.07-10A9.49,9.49,0,0,0,382.47,83c-5.46,0-9.1,4.42-9.1,10.34,0,6.37,3.38,10.85,8.52,10.85C386.18,104.2,390.08,102.19,391.31,98.48Z"/></g></g></g></svg>